# xmcd
#
# Track frame offsets:
# 151
# 15658
# 29173
# 38617
# 49403
# 65297
# 90253
# 103254
# 116922
# 129466
# 144757
# 168338
# 184740
# 197192
# 206081
# 230026
#
# Disc length: 4204 seconds
#
#
# Revision: 0
# Processed by: cddbd v1.5.1PL0 Copyright (c) Steve Scherf et al.
# Submitted via: FreeRIP 2.60 
#
DISCID=e4106a10
DTITLE=Stevie Ray Vaughan - Triple Trouble [CDOne)
DYEAR=2000
DGENRE=Blues
TTITLE0=Rude Mood
TTITLE1=Pride And Joy
TTITLE2=Love Struck Baby
TTITLE3=Gonna Miss Me
TTITLE4=I'm Crying
TTITLE5=I Wonder Why
TTITLE6=You Can Have My Husband
TTITLE7=Oh Yeah
TTITLE8=Ti-Ni-Nee-Ni-Nu
TTITLE9=Sugar Coated Loving
TTITLE10=Dirty Pool
TTITLE11=I'm Crying
TTITLE12=Gonna Miss Me
TTITLE13=Hug, Kiss And Squeeze
TTITLE14=Right Or Wrong
TTITLE15=Little Wing - Third Stone From The Sun
EXTD=Tracks 1-10    Jack Clement's Belmont Studio - early 1978 (from an acetate]\nTracks 11-13  Studio 21 San Antonio, TX - August 30, 1978\nTracks 14-16  Power Station, NYC - Jan.-Feb 1984
EXTT0=
EXTT1=
EXTT2=
EXTT3=
EXTT4=
EXTT5=
EXTT6=
EXTT7=
EXTT8=
EXTT9=
EXTT10=
EXTT11=
EXTT12=
EXTT13=
EXTT14=
EXTT15=
PLAYORDER=
